<svg width="40" height="40" viewBox="0 0 40 40" fill="none" xmlns="http://www.w3.org/2000/svg">
<path d="M18.4 5.2C17.742 5.2 17.2 5.74201 17.2 6.4V7.2H12.9062C12.2044 7.2 11.5518 7.56912 11.1906 8.17109L10.5734 9.2H9.2C8.32106 9.2 7.6 9.92106 7.6 10.8C7.6 11.6789 8.32106 12.4 9.2 12.4H9.62969L11.0594 30.9836C11.1551 32.2303 12.2018 33.2 13.4523 33.2H26.5477C27.7982 33.2 28.8449 32.2303 28.9406 30.9836L30.3703 12.4H30.8C31.6789 12.4 32.4 11.6789 32.4 10.8C32.4 9.92106 31.6789 9.2 30.8 9.2H29.4266L28.8094 8.17109C28.4482 7.56912 27.7956 7.2 27.0937 7.2H22.8V6.4C22.8 5.74201 22.258 5.2 21.6 5.2H18.4ZM18.4 6H21.6C21.826 6 22 6.17398 22 6.4V7.2H18V6.4C18 6.17398 18.174 6 18.4 6ZM12.9062 8H17.5328C17.576 8.00714 17.6201 8.00714 17.6633 8H22.3328C22.376 8.00714 22.4201 8.00714 22.4633 8H27.0937C27.5159 8 27.9054 8.22078 28.1227 8.58281L28.7336 9.6H27.4C27.3735 9.59962 27.3472 9.60452 27.3226 9.6144C27.298 9.62428 27.2756 9.63896 27.2567 9.65757C27.2379 9.67617 27.2229 9.69835 27.2126 9.7228C27.2024 9.74725 27.1972 9.77349 27.1972 9.8C27.1972 9.8265 27.2024 9.85274 27.2126 9.87719C27.2229 9.90165 27.2379 9.92382 27.2567 9.94243C27.2756 9.96104 27.298 9.97571 27.3226 9.98559C27.3472 9.99548 27.3735 10.0004 27.4 10H29.4H30.8C31.2467 10 31.6 10.3533 31.6 10.8C31.6 11.2467 31.2467 11.6 30.8 11.6H9.2C8.75333 11.6 8.4 11.2467 8.4 10.8C8.4 10.3533 8.75333 10 9.2 10H10.8H24.6C24.6265 10.0004 24.6528 9.99548 24.6774 9.98559C24.702 9.97571 24.7244 9.96104 24.7433 9.94243C24.7621 9.92382 24.7771 9.90165 24.7873 9.87719C24.7976 9.85274 24.8028 9.8265 24.8028 9.8C24.8028 9.77349 24.7976 9.74725 24.7873 9.7228C24.7771 9.69835 24.7621 9.67617 24.7433 9.65757C24.7244 9.63896 24.702 9.62428 24.6774 9.6144C24.6528 9.60452 24.6265 9.59962 24.6 9.6H11.2664L11.8773 8.58281C12.0946 8.22078 12.4841 8 12.9062 8ZM25.8 9.6C25.7735 9.59962 25.7472 9.60452 25.7226 9.6144C25.698 9.62428 25.6756 9.63896 25.6567 9.65757C25.6379 9.67617 25.6229 9.69835 25.6126 9.7228C25.6024 9.74725 25.5972 9.77349 25.5972 9.8C25.5972 9.8265 25.6024 9.85274 25.6126 9.87719C25.6229 9.90165 25.6379 9.92382 25.6567 9.94243C25.6756 9.96104 25.698 9.97571 25.7226 9.98559C25.7472 9.99548 25.7735 10.0004 25.8 10H26.6C26.6265 10.0004 26.6528 9.99548 26.6774 9.98559C26.702 9.97571 26.7244 9.96104 26.7433 9.94243C26.7621 9.92382 26.7771 9.90165 26.7873 9.87719C26.7976 9.85274 26.8028 9.8265 26.8028 9.8C26.8028 9.77349 26.7976 9.74725 26.7873 9.7228C26.7771 9.69835 26.7621 9.67617 26.7433 9.65757C26.7244 9.63896 26.702 9.62428 26.6774 9.6144C26.6528 9.60452 26.6265 9.59962 26.6 9.6H25.8ZM10.4312 12.4H29.5687L28.143 30.9227C28.0787 31.7599 27.3875 32.4 26.5477 32.4H13.4523C12.6125 32.4 11.9213 31.7599 11.857 30.9227L10.4312 12.4ZM15.2 14C14.5396 14 14 14.5396 14 15.2V29.2C14 29.8604 14.5396 30.4 15.2 30.4C15.8604 30.4 16.4 29.8604 16.4 29.2V15.2C16.4 14.5396 15.8604 14 15.2 14ZM20 14C19.3396 14 18.8 14.5396 18.8 15.2V29.2C18.8 29.8604 19.3396 30.4 20 30.4C20.6604 30.4 21.2 29.8604 21.2 29.2V27.8C21.2004 27.7735 21.1955 27.7472 21.1856 27.7226C21.1757 27.698 21.161 27.6756 21.1424 27.6567C21.1238 27.6379 21.1016 27.6229 21.0772 27.6126C21.0527 27.6024 21.0265 27.5972 21 27.5972C20.9735 27.5972 20.9473 27.6024 20.9228 27.6126C20.8983 27.6229 20.8762 27.6379 20.8576 27.6567C20.839 27.6756 20.8243 27.698 20.8144 27.7226C20.8045 27.7472 20.7996 27.7735 20.8 27.8V29.2C20.8 29.6444 20.4444 30 20 30C19.5556 30 19.2 29.6444 19.2 29.2V15.2C19.2 14.7556 19.5556 14.4 20 14.4C20.4444 14.4 20.8 14.7556 20.8 15.2V25.4C20.7996 25.4265 20.8045 25.4528 20.8144 25.4774C20.8243 25.502 20.839 25.5244 20.8576 25.5433C20.8762 25.5621 20.8983 25.5771 20.9228 25.5873C20.9473 25.5976 20.9735 25.6028 21 25.6028C21.0265 25.6028 21.0527 25.5976 21.0772 25.5873C21.1016 25.5771 21.1238 25.5621 21.1424 25.5433C21.161 25.5244 21.1757 25.502 21.1856 25.4774C21.1955 25.4528 21.2004 25.4265 21.2 25.4V15.2C21.2 14.5396 20.6604 14 20 14ZM24.8 14C24.1396 14 23.6 14.5396 23.6 15.2V15.8C23.5996 15.8265 23.6045 15.8528 23.6144 15.8774C23.6243 15.902 23.639 15.9244 23.6576 15.9433C23.6762 15.9621 23.6984 15.9771 23.7228 15.9873C23.7473 15.9976 23.7735 16.0028 23.8 16.0028C23.8265 16.0028 23.8527 15.9976 23.8772 15.9873C23.9016 15.9771 23.9238 15.9621 23.9424 15.9433C23.961 15.9244 23.9757 15.902 23.9856 15.8774C23.9955 15.8528 24.0004 15.8265 24 15.8V15.2C24 14.7556 24.3556 14.4 24.8 14.4C25.2444 14.4 25.6 14.7556 25.6 15.2V29.2C25.6 29.6444 25.2444 30 24.8 30C24.3556 30 24 29.6444 24 29.2V19C24.0004 18.9735 23.9955 18.9472 23.9856 18.9226C23.9757 18.898 23.961 18.8756 23.9424 18.8567C23.9238 18.8379 23.9016 18.8229 23.8772 18.8126C23.8527 18.8024 23.8265 18.7971 23.8 18.7971C23.7735 18.7971 23.7473 18.8024 23.7228 18.8126C23.6984 18.8229 23.6762 18.8379 23.6576 18.8567C23.639 18.8756 23.6243 18.898 23.6144 18.9226C23.6045 18.9472 23.5996 18.9735 23.6 19V29.2C23.6 29.8604 24.1396 30.4 24.8 30.4C25.4604 30.4 26 29.8604 26 29.2V15.2C26 14.5396 25.4604 14 24.8 14ZM15.2 14.4C15.6444 14.4 16 14.7556 16 15.2V29.2C16 29.6444 15.6444 30 15.2 30C14.7556 30 14.4 29.6444 14.4 29.2V15.2C14.4 14.7556 14.7556 14.4 15.2 14.4ZM23.7969 16.7969C23.7706 16.7973 23.7447 16.8029 23.7206 16.8133C23.6965 16.8237 23.6746 16.8388 23.6564 16.8577C23.6381 16.8765 23.6237 16.8988 23.614 16.9232C23.6044 16.9476 23.5996 16.9737 23.6 17V17.8C23.5996 17.8265 23.6045 17.8528 23.6144 17.8774C23.6243 17.902 23.639 17.9244 23.6576 17.9433C23.6762 17.9621 23.6984 17.9771 23.7228 17.9873C23.7473 17.9976 23.7735 18.0028 23.8 18.0028C23.8265 18.0028 23.8527 17.9976 23.8772 17.9873C23.9016 17.9771 23.9238 17.9621 23.9424 17.9433C23.961 17.9244 23.9757 17.902 23.9856 17.8774C23.9955 17.8528 24.0004 17.8265 24 17.8V17C24.0004 16.9732 23.9954 16.9466 23.9854 16.9218C23.9753 16.8969 23.9604 16.8744 23.9414 16.8554C23.9225 16.8365 23.8999 16.8215 23.8751 16.8115C23.8503 16.8014 23.8237 16.7965 23.7969 16.7969Z" fill="black"/>
</svg>
