<svg width="30" height="30" viewBox="0 0 30 30" fill="none" xmlns="http://www.w3.org/2000/svg">
<path d="M22.5458 1.61865C22.0605 1.61865 21.5753 1.79443 21.2201 2.14966L19.2334 4.13818C18.8672 3.77197 18.2721 3.77197 17.9077 4.13818L15.2563 6.78955C15.0787 6.96716 14.9799 7.20337 14.9799 7.45422C14.9799 7.70325 15.0787 7.93945 15.2563 8.11523L15.2783 8.13904L2.58545 20.8118C2.34924 21.048 2.20642 21.3611 2.17895 21.6943L1.86218 25.6293L1.53259 27.9364C1.51062 28.0829 1.56006 28.2294 1.66626 28.3356C1.75415 28.4235 1.87317 28.4711 1.99585 28.4711C2.01965 28.4711 2.04162 28.4711 2.0636 28.4674L4.36889 28.1396L8.32763 27.8467C8.66455 27.8229 8.97949 27.6782 9.21753 27.4402L21.9104 14.7656C22.0843 14.9286 22.3077 15.0201 22.5476 15.0201C22.7985 15.0201 23.0328 14.9231 23.2104 14.7455L25.8618 12.0941C26.228 11.7279 26.228 11.1346 25.8618 10.7684L27.8522 8.77991C28.2056 8.42468 28.3997 7.9541 28.3997 7.45239C28.3997 6.95251 28.2056 6.4801 27.8503 6.12671L23.8733 2.14966C23.5199 1.79443 23.0328 1.61865 22.5458 1.61865ZM22.5458 2.547C22.7893 2.547 23.0328 2.63489 23.2104 2.8125L27.1875 6.78955C27.3651 6.96716 27.4622 7.20154 27.4622 7.45239C27.4622 7.70325 27.3651 7.93945 27.1875 8.11523L25.199 10.1056L19.8944 4.80103L21.8848 2.8125C22.0605 2.63489 22.3041 2.547 22.5458 2.547ZM18.5687 4.80103L18.902 5.13245L24.8675 11.098L25.199 11.4313L24.5361 12.0923C24.353 11.9092 24.0564 11.9092 23.8733 12.0923L23.2104 12.757C23.0273 12.9401 23.0273 13.2367 23.2104 13.4198L22.5476 14.0826L15.9174 7.45239L16.5802 6.78955C16.6717 6.8811 16.7908 6.92688 16.9116 6.92688C17.0325 6.92688 17.1515 6.8811 17.243 6.78955L17.9077 6.12671C18.0908 5.9436 18.0908 5.64697 17.9077 5.46387L18.5687 4.80103ZM19.2334 6.98364C19.1125 6.98364 18.9935 7.02942 18.902 7.12097L18.2373 7.78381C18.0542 7.96692 18.0542 8.26355 18.2373 8.44666C18.3289 8.53821 18.4497 8.58398 18.5687 8.58398C18.6896 8.58398 18.8104 8.53821 18.902 8.44666L19.563 7.78381C19.7479 7.60071 19.7479 7.30408 19.563 7.12097C19.4714 7.02942 19.3524 6.98364 19.2334 6.98364ZM20.8887 8.64258C20.7696 8.64258 20.6506 8.68652 20.5591 8.77991L19.8944 9.44092C19.7113 9.62585 19.7113 9.92065 19.8944 10.1056C19.986 10.1953 20.1068 10.2411 20.2277 10.2411C20.3467 10.2411 20.4675 10.1953 20.5591 10.1056L21.2201 9.44092C21.405 9.25781 21.405 8.96301 21.2201 8.77991C21.1285 8.68652 21.0095 8.64258 20.8887 8.64258ZM15.943 8.80188L21.2457 14.1064L8.91906 26.413L8.47229 24.1791L16.2488 16.4026C16.4319 16.2195 16.4319 15.9229 16.2488 15.7397C16.0657 15.5566 15.7709 15.5566 15.5859 15.7397L7.80761 23.5181L6.70349 23.2965L6.48193 22.1906L12.9346 15.7397C13.1195 15.5548 13.1195 15.26 12.9346 15.0751C12.7515 14.892 12.4567 14.892 12.2736 15.0751L5.82092 21.5277L3.63464 21.0919L15.943 8.80188ZM22.5476 10.2979C22.4268 10.2979 22.3077 10.3436 22.2162 10.437L21.5533 11.098C21.3702 11.283 21.3702 11.5778 21.5533 11.7627C21.6449 11.8524 21.7639 11.9 21.8848 11.9C22.0056 11.9 22.1246 11.8524 22.2162 11.7627L22.879 11.098C23.0621 10.9149 23.0621 10.6201 22.879 10.437C22.7875 10.3436 22.6685 10.2979 22.5476 10.2979ZM15.2563 12.2882C15.1355 12.2882 15.0165 12.334 14.9249 12.4237L13.5992 13.7494C13.4143 13.9343 13.4143 14.2291 13.5992 14.4141C13.689 14.5038 13.8098 14.5514 13.9307 14.5514C14.0497 14.5514 14.1705 14.5038 14.2603 14.4141L15.5859 13.0884C15.7709 12.9034 15.7709 12.6086 15.5859 12.4237C15.4944 12.3322 15.3754 12.2864 15.2563 12.2882ZM3.09814 21.9397L5.57556 22.4341L5.84472 23.7872C5.88318 23.9722 6.02783 24.1168 6.21277 24.1534L7.56408 24.4244L8.06396 26.9257L4.49707 27.1875L2.8125 25.5048L3.09814 21.9397Z" fill="black"/>
</svg>
