<svg width="40" height="40" viewBox="0 0 40 40" fill="none" xmlns="http://www.w3.org/2000/svg">
<path d="M29.2789 9.88515C26.5305 9.88515 24.2715 11.5136 24.0383 13.5812H7.46328C6.21328 13.5812 5.19688 14.5977 5.19688 15.8477V27.7141C5.19688 28.9641 6.21328 29.9812 7.46328 29.9812H26.9305C28.1805 29.9812 29.1969 28.9641 29.1969 27.7141V17.9812H29.2797C32.1825 17.9812 34.5438 16.1648 34.5438 13.9328C34.543 11.7004 32.1817 9.88515 29.2789 9.88515ZM29.2789 10.6852C31.7405 10.6852 33.7438 12.142 33.7438 13.9328C33.7438 15.7236 31.7405 17.1812 29.2789 17.1812H28.6711C28.5651 17.1812 28.4631 17.2232 28.3883 17.2984C27.9907 17.6956 27.2255 18.1467 26.3531 18.3227C26.5319 17.8487 26.6391 17.28 26.6391 16.7828C26.6391 16.642 26.5649 16.5126 26.4445 16.4406C25.4077 15.8178 24.814 14.904 24.8148 13.9336V13.9328C24.8148 12.1416 26.8173 10.6852 29.2789 10.6852ZM27.3969 13.1812C27.0661 13.1812 26.7969 13.4504 26.7969 13.7812C26.7969 14.112 27.0661 14.3812 27.3969 14.3812C27.7277 14.3812 27.9969 14.112 27.9969 13.7812C27.9969 13.4504 27.7277 13.1812 27.3969 13.1812ZM29.3969 13.1812C29.0661 13.1812 28.7969 13.4504 28.7969 13.7812C28.7969 14.112 29.0661 14.3812 29.3969 14.3812C29.7277 14.3812 29.9969 14.112 29.9969 13.7812C29.9969 13.4504 29.7277 13.1812 29.3969 13.1812ZM31.3969 13.1812C31.0661 13.1812 30.7969 13.4504 30.7969 13.7812C30.7969 14.112 31.0661 14.3812 31.3969 14.3812C31.7277 14.3812 31.9969 14.112 31.9969 13.7812C31.9969 13.4504 31.7277 13.1812 31.3969 13.1812ZM27.3969 13.5812C27.5073 13.5812 27.5969 13.6712 27.5969 13.7812C27.5969 13.8912 27.5073 13.9812 27.3969 13.9812C27.2865 13.9812 27.1969 13.8912 27.1969 13.7812C27.1969 13.6712 27.2865 13.5812 27.3969 13.5812ZM29.3969 13.5812C29.5073 13.5812 29.5969 13.6712 29.5969 13.7812C29.5969 13.8912 29.5073 13.9812 29.3969 13.9812C29.2865 13.9812 29.1969 13.8912 29.1969 13.7812C29.1969 13.6712 29.2865 13.5812 29.3969 13.5812ZM31.3969 13.5812C31.5073 13.5812 31.5969 13.6712 31.5969 13.7812C31.5969 13.8912 31.5073 13.9812 31.3969 13.9812C31.2865 13.9812 31.1969 13.8912 31.1969 13.7812C31.1969 13.6712 31.2865 13.5812 31.3969 13.5812ZM7.46328 14.3812H24.0461C24.1673 15.2424 24.639 16.0387 25.3938 16.6703L17.6555 23.0406L6.76797 14.5648C6.97597 14.4512 7.21008 14.3812 7.46328 14.3812ZM6.43047 14.8086C6.43167 14.8098 6.4324 14.8113 6.4336 14.8125L17.5359 23.4547C17.5719 23.4827 17.6154 23.4969 17.6586 23.4969C17.7038 23.4969 17.7491 23.482 17.7859 23.4516L25.7219 16.918C25.7591 16.944 25.7921 16.9721 25.8305 16.9977C25.8005 17.4125 25.6893 17.8704 25.5305 18.2156C25.4285 18.438 25.4563 18.6981 25.6023 18.8945C25.7279 19.0637 25.9245 19.1617 26.1305 19.1617C26.1605 19.1617 26.1911 19.1599 26.2211 19.1555C26.9835 19.0507 27.7753 18.7365 28.3969 18.3141V27.7133C28.3969 28.1165 28.2335 28.4813 27.9703 28.7469L21.1078 22.6156C21.0258 22.542 20.8998 22.5488 20.8258 22.6312C20.7522 22.7136 20.759 22.8401 20.8414 22.9141L27.6414 28.9891C27.4298 29.1079 27.1897 29.1812 26.9305 29.1812H7.46328C7.28288 29.1812 7.11273 29.144 6.95313 29.0844C6.96633 29.0772 6.98059 29.0713 6.99219 29.0609L13.8719 22.9141C13.9543 22.8401 13.9619 22.7136 13.8883 22.6312C13.8143 22.5488 13.6879 22.542 13.6055 22.6156L6.725 28.7625C6.6726 28.8093 6.65406 28.8766 6.66406 28.9414C6.26286 28.6794 5.99688 28.2281 5.99688 27.7141V15.8477C5.99688 15.4417 6.16287 15.0742 6.43047 14.8086Z" fill="black"/>
</svg>
