<svg width="40" height="40" viewBox="0 0 40 40" fill="none" xmlns="http://www.w3.org/2000/svg">
<path d="M18.1484 25.1875C17.9375 27.1562 17.8203 29.3203 16.7813 31.0625C16.3125 31.8516 15.7109 32.5234 14.8438 32.8828C14.0078 33.2266 13.0859 33.3125 12.1953 33.2266C10.6641 33.0703 8.65625 32.4063 8.51562 30.6016C8.39062 28.9297 9.5 27.3359 10.2734 25.9453C10.8359 24.9375 11.4297 23.9375 11.9375 22.9063C12.3828 22 12.8359 21.0938 13.5547 20.3672C14.7109 19.1875 16.7813 19.3281 17.7813 20.6328C17.8359 20.6953 17.8594 20.7656 17.8594 20.8281C18.6719 20.5 19.2422 19.8984 19.8594 19.3125C19.8281 19.2969 19.8047 19.2891 19.7734 19.2656C19.1953 18.8594 18.7344 18.2969 18.3828 17.6719C18.2891 17.7188 18.1797 17.7266 18.0625 17.6875C17.2656 17.3906 16.3828 17.3438 15.5156 17.4688C15.4531 17.5078 15.3828 17.5156 15.3125 17.5C14.4219 17.6562 13.5469 17.9844 12.7891 18.3906C12.0156 18.8047 11.2734 19.3203 10.6797 19.9766C10.0391 20.6875 9.61719 21.5391 9.30469 22.4297C8.95312 23.4453 8.6875 24.4844 8.26562 25.4766C7.84375 26.4688 7.30469 27.4219 6.9375 28.4375C6.39844 29.9062 6.50781 31.4844 7.55469 32.7031C8.67187 34 10.3672 34.6094 11.9922 34.9688C13.6641 35.3359 15.5547 35.5625 17.1641 34.8438C18.9609 34.0469 19.8203 32.1875 20.0625 30.3281C20.3047 28.4375 20.1094 26.5156 20.4063 24.625C19.6797 24.9063 18.9219 25.0938 18.1484 25.1875ZM18.2969 11.1172C17.4453 11.25 16.6406 11.7031 15.9063 12.1328C15.0625 12.625 14.2813 13.2344 13.6172 13.9531C12.9297 14.6953 12.3438 15.5313 11.9219 16.4531C11.625 17.1094 11.4297 17.7891 11.2266 18.4688C11.7656 18.0625 12.3516 17.7188 12.9766 17.4453C13.6563 17.1406 14.3828 16.8984 15.125 16.7656C15.7109 15.9141 16.2734 14.5078 17.4297 14.375C17.3438 13.2188 17.5703 12.0781 18.2969 11.1172ZM34.1953 9.72656C33.5313 8.24219 32.5703 6.64063 31.1641 5.74219C30.4609 5.29688 29.6641 5.01563 28.8203 5.08594C27.7734 5.17969 26.8047 5.71094 25.9219 6.25C24.9688 6.82813 24.0781 7.49219 23.1797 8.14844C22.3594 8.74219 21.5156 9.3125 20.7031 9.92188C19.9453 10.4844 19.1328 11.1172 18.6641 11.9531C18.2656 12.6797 18.1172 13.4766 18.1797 14.2969C18.2969 15.8828 18.9375 17.7188 20.2891 18.6719C20.3438 18.7109 20.3828 18.7578 20.4063 18.8125C20.9375 18.3672 21.7891 17.6797 22.3672 16.9453C22.3125 16.9062 22.2656 16.8438 22.2344 16.7578C22.1328 16.4453 21.8281 16.2969 21.6484 16.0312C21.4844 15.7891 21.3516 15.5391 21.2734 15.25C21.1172 14.6875 21.2344 14.0547 21.5 13.5469C22.0703 12.4844 22.9609 11.5 23.7969 10.6328C24.6719 9.71875 25.6406 8.875 26.6953 8.17188C27.7031 7.49219 28.7578 6.97656 29.9609 7.53125C30.1172 7.60156 30.1797 7.73438 30.1719 7.86719C31.2188 8.3125 31.4766 9.375 31.6875 10.4062C31.9375 11.6094 32.2031 12.8984 31.8281 14.1016C31.4453 15.3281 30.6016 16.5156 29.6406 17.3672C29.1797 17.7813 28.6719 18.2109 28.0625 18.3828C27.4531 18.5547 26.8438 18.5781 26.2188 18.5781C26.1406 18.5781 26.0703 18.5625 26.0156 18.5312C25.6953 19.3594 25.2969 20.1562 24.8125 20.8984C26.8906 21.6016 29.0234 20.8281 30.8047 19.6641C32.4766 18.5781 34.125 17.2578 34.7109 15.2734C35.2813 13.4219 34.9766 11.4688 34.1953 9.72656Z" fill="white"/>
<path d="M25.7031 14.2969C25.2188 13.6016 24.5156 13.0625 23.7656 12.6797C23.6719 12.6328 23.6094 12.5625 23.5781 12.4844C23.4766 12.4922 23.375 12.4609 23.2969 12.3906C23.2734 12.4219 23.2422 12.4531 23.2188 12.4844C22.9531 12.8203 22.6484 13.1641 22.4141 13.5391C22.7188 13.6562 23.0156 13.9531 23.2109 14.1797C23.6484 14.6875 23.8828 15.3672 23.7344 16.0391C23.4531 17.2969 22.3594 18.1953 21.4219 18.9844C20.9609 19.375 20.5 19.75 20.0859 20.1875C19.5469 20.7656 18.9063 21.2656 18.1641 21.5469C16.7266 22.0937 15.2109 21.8359 13.8516 21.1953C13.8438 21.1953 13.8359 21.1875 13.8359 21.1875C13.3516 21.7422 13.0156 22.4688 12.7031 23.125C15.9375 25.3828 20.5234 24.7031 23.1563 21.8125C24.4453 20.3984 25.3125 18.6406 25.7969 16.7969C26.0078 15.9219 26.2656 15.0937 25.7031 14.2969Z" fill="white"/>
<path d="M32.9844 6.33594C31.8516 5.05469 30.3125 4.12501 28.5547 4.33594C27.5391 4.45313 26.5937 4.96876 25.7187 5.47657C24.7578 6.03126 23.8594 6.70313 22.9609 7.35938C22.1328 7.96094 21.2891 8.54688 20.4609 9.14844C19.9531 9.51563 19.4453 9.90625 18.9922 10.3438C18.9453 10.3203 18.8984 10.3125 18.8359 10.3047C17.7422 10.2578 16.7109 10.7813 15.7891 11.3047C14.8359 11.8359 13.9687 12.4844 13.1953 13.2656C12.4609 14 11.8516 14.8672 11.375 15.7813C10.8125 16.8672 10.5937 18.0625 10.1562 19.1953C10.1172 19.2891 10.1172 19.375 10.1406 19.4453C9.64844 19.9844 9.24219 20.5938 8.92187 21.2813C8.47656 22.2656 8.25781 23.3203 7.88281 24.3281C7.47656 25.4453 6.92969 26.5156 6.4375 27.6016C5.71875 29.1797 5.5625 30.9219 6.42969 32.4688C7.24219 33.9063 8.80469 34.7969 10.3203 35.3125C11.9609 35.875 13.7969 36.1953 15.5312 36.0391C17.3594 35.8672 18.8672 34.9609 19.8516 33.4063C20.9062 31.7422 20.9375 29.6563 20.9766 27.7578C21 26.6953 21.0078 25.6406 21.1953 24.5938C21.2187 24.4766 21.1875 24.375 21.125 24.2969C21.7812 23.9688 22.4062 23.5547 22.9766 23.0625C23.4922 22.6094 23.9531 22.1094 24.3672 21.5625C26.4453 22.3281 28.5469 21.8438 30.4531 20.8047C32.2422 19.8281 34.0312 18.4766 35 16.6484C36.7969 13.3047 35.3516 9.00782 32.9844 6.33594ZM11.9141 16.4453C12.3359 15.5234 12.9219 14.6875 13.6094 13.9453C14.2734 13.2266 15.0547 12.6172 15.8984 12.125C16.6328 11.6953 17.4375 11.2422 18.2891 11.1094C17.5625 12.0703 17.3359 13.2188 17.4062 14.3672C16.2578 14.4922 15.6953 15.9063 15.1016 16.7578C14.3594 16.8906 13.6328 17.1328 12.9531 17.4375C12.3281 17.7188 11.7344 18.0625 11.2031 18.4609C11.4219 17.7891 11.6172 17.1016 11.9141 16.4453ZM17.9844 16.8438C17.3672 16.6719 16.7344 16.6172 16.1016 16.6406C16.2109 16.4609 16.3203 16.2813 16.4375 16.1094C16.6797 15.75 17.0312 15.2109 17.5 15.1484C17.5469 15.3984 17.6016 15.6484 17.6641 15.8984C17.75 16.2109 17.8594 16.5313 17.9844 16.8438ZM20.0625 30.3281C19.8281 32.1875 18.9609 34.0391 17.1641 34.8438C15.5547 35.5625 13.6562 35.3438 11.9922 34.9688C10.375 34.6094 8.67187 33.9922 7.55469 32.7031C6.50781 31.4844 6.39844 29.9063 6.9375 28.4375C7.30469 27.4219 7.84375 26.4688 8.26562 25.4766C8.6875 24.4844 8.94531 23.4453 9.30469 22.4297C9.61719 21.5313 10.0391 20.6797 10.6797 19.9766C11.2734 19.3203 12.0156 18.8047 12.7891 18.3906C13.5391 17.9844 14.4141 17.6563 15.3125 17.5C15.3828 17.5156 15.4531 17.5078 15.5156 17.4688C16.3828 17.3438 17.2578 17.3906 18.0625 17.6875C18.1797 17.7344 18.2891 17.7188 18.3828 17.6719C18.7422 18.2969 19.2031 18.8594 19.7734 19.2656C19.7969 19.2813 19.8281 19.2969 19.8594 19.3125C19.2422 19.8984 18.6719 20.4922 17.8594 20.8281C17.8516 20.7656 17.8281 20.6953 17.7812 20.6328C16.7734 19.3281 14.7109 19.1953 13.5547 20.3672C12.8437 21.0938 12.3828 22 11.9375 22.9063C11.4297 23.9453 10.8359 24.9375 10.2734 25.9453C9.5 27.3359 8.39062 28.9297 8.51562 30.6016C8.65625 32.4063 10.6641 33.0703 12.1953 33.2266C13.0859 33.3203 14.0156 33.2344 14.8437 32.8828C15.7109 32.5234 16.3047 31.8516 16.7812 31.0625C17.8203 29.3203 17.9375 27.1563 18.1484 25.1875C18.9219 25.1016 19.6797 24.9063 20.4062 24.625C20.1094 26.5078 20.3047 28.4375 20.0625 30.3281ZM17.1094 21.0313C16.2187 21.1719 15.3047 20.9688 14.4766 20.6172C14.4844 20.6094 14.4844 20.6094 14.4922 20.6016C15.2969 20.1016 16.5078 20.3047 17.1094 21.0313ZM12.3437 23.8281C13.8437 24.8281 15.6094 25.2891 17.3594 25.2422C17.1641 27.1016 17.0234 29.0625 16.0781 30.7188C15.625 31.5078 14.9844 32.0547 14.1094 32.3203C13.2734 32.5703 12.3516 32.5078 11.5078 32.3281C10.7422 32.1641 9.8125 31.8516 9.44531 31.0859C9.125 30.4219 9.33594 29.6328 9.58594 28.9922C9.89062 28.1875 10.3359 27.4297 10.7578 26.6797C11.2891 25.7344 11.8437 24.7891 12.3437 23.8281ZM23.1484 21.8125C20.5234 24.7031 15.9297 25.3828 12.6953 23.125C13.0156 22.4609 13.3516 21.7422 13.8281 21.1875C13.8359 21.1875 13.8437 21.1953 13.8437 21.1953C15.2031 21.8359 16.7187 22.0938 18.1562 21.5469C18.8984 21.2656 19.5391 20.7656 20.0781 20.1875C20.4922 19.75 20.9531 19.375 21.4141 18.9844C22.3516 18.1953 23.4453 17.2969 23.7266 16.0391C23.875 15.375 23.6406 14.6875 23.2031 14.1797C23.0156 13.9609 22.7109 13.6563 22.4062 13.5391C22.6406 13.1719 22.9453 12.8203 23.2109 12.4844C23.2344 12.4531 23.2656 12.4219 23.2891 12.3906C23.3672 12.4531 23.4687 12.4922 23.5703 12.4844C23.6016 12.5625 23.6562 12.6328 23.7578 12.6797C24.5078 13.0625 25.2109 13.6016 25.6953 14.2969C26.2578 15.0938 26 15.9219 25.7734 16.7969C25.3047 18.6406 24.4297 20.3984 23.1484 21.8125ZM22.1562 15.3672C21.9766 15.0703 21.9609 14.7422 22.0312 14.4219C22.1172 14.4375 22.2031 14.4219 22.2891 14.3828C23.0781 14.9063 23.1328 15.5547 22.8437 16.2031C22.6406 15.9063 22.3516 15.6875 22.1562 15.3672ZM29.7812 8.53907C30.6797 8.89063 30.8047 9.86719 30.9766 10.7188C31.1875 11.75 31.3672 12.7969 31.1094 13.8359C30.8438 14.9063 30.0234 15.9063 29.2578 16.6719C28.8516 17.0781 28.3672 17.4688 27.8203 17.6484C27.3359 17.8125 26.8047 17.8047 26.2969 17.8047C26.3984 17.4844 26.4922 17.1641 26.5781 16.8359C26.6953 16.375 26.8438 15.8672 26.8516 15.3906C26.8672 14.4922 26.3281 13.7344 25.7187 13.125C25.2578 12.6641 24.6953 12.2891 24.1172 11.9922C24.0547 11.9609 23.9922 11.9453 23.9375 11.9453C23.9219 11.8828 23.8906 11.8125 23.8437 11.7656C24 11.5938 24.1562 11.4219 24.3125 11.25C25.0469 10.4688 25.8516 9.75782 26.7187 9.12501C27.5469 8.52344 28.5078 7.76563 29.5703 8.21094C29.5547 8.33594 29.6172 8.47657 29.7812 8.53907ZM34.7344 15.2734C34.1484 17.2656 32.4922 18.5781 30.8281 19.6641C29.0469 20.8203 26.9141 21.5938 24.8359 20.8984C25.3203 20.1563 25.7187 19.3516 26.0391 18.5313C26.0937 18.5625 26.1641 18.5781 26.2422 18.5781C26.8672 18.5781 27.4766 18.5547 28.0859 18.3828C28.6953 18.2031 29.2031 17.7813 29.6641 17.3672C30.6172 16.5156 31.4609 15.3281 31.8516 14.1016C32.2344 12.8984 31.9609 11.6016 31.7109 10.4063C31.5 9.37501 31.2422 8.31251 30.1953 7.86719C30.2031 7.73438 30.1406 7.60157 29.9844 7.53126C28.7812 6.97657 27.7266 7.49219 26.7187 8.17188C25.6641 8.88282 24.6953 9.71876 23.8203 10.6328C22.9844 11.5 22.1016 12.4844 21.5234 13.5469C21.25 14.0547 21.1406 14.6875 21.2969 15.25C21.375 15.5313 21.5 15.7891 21.6719 16.0313C21.8516 16.2969 22.1562 16.4453 22.2578 16.7578C22.2891 16.8438 22.3359 16.9063 22.3906 16.9453C21.8125 17.6875 20.9531 18.3672 20.4297 18.8125C20.4062 18.7656 20.3672 18.7188 20.3125 18.6719C18.9609 17.7188 18.3203 15.8906 18.2031 14.2969C18.1406 13.4766 18.2812 12.6797 18.6875 11.9531C19.1562 11.1094 19.9687 10.4844 20.7266 9.92188C21.5391 9.32032 22.3828 8.75001 23.2031 8.14844C24.1016 7.49219 24.9922 6.82813 25.9453 6.25001C26.8281 5.71094 27.7969 5.17969 28.8438 5.08594C29.6875 5.00782 30.4844 5.29688 31.1875 5.74219C32.5938 6.63282 33.5547 8.24219 34.2187 9.72657C34.9766 11.4688 35.2812 13.4219 34.7344 15.2734Z" fill="black"/>
</svg>
