<svg width="500" height="489" viewBox="0 0 500 489" fill="none" xmlns="http://www.w3.org/2000/svg">
<path d="M489.477 179.781L266.96 5.83381C262.123 2.05356 256.16 0 250.021 0C243.881 0 237.919 2.05356 233.081 5.83381L10.564 179.781C7.27244 182.355 4.61048 185.645 2.78008 189.401C0.949679 193.158 -0.00105968 197.281 8.86342e-07 201.46V398.695C8.86342e-07 405.991 2.89842 412.988 8.05761 418.148C13.2168 423.307 20.2141 426.205 27.5103 426.205H80.5364L79.4498 411.446C79.1957 407.975 77.6351 404.729 75.0825 402.362C72.5299 399.996 69.1752 398.686 65.6946 398.695H41.2655C37.6174 398.695 34.1187 397.246 31.5391 394.666C28.9595 392.086 27.5103 388.588 27.5103 384.94V208.158C27.5098 206.069 27.9852 204.007 28.9004 202.129C29.8156 200.251 31.1465 198.606 32.7923 197.319L250.014 27.4982L467.249 197.319C468.895 198.606 470.226 200.251 471.141 202.129C472.056 204.007 472.531 206.069 472.531 208.158V384.94C472.531 388.588 471.082 392.086 468.502 394.666C465.922 397.246 462.424 398.695 458.776 398.695H434.305C430.825 398.686 427.47 399.996 424.917 402.362C422.365 404.729 420.804 407.975 420.55 411.446L419.463 426.205H472.49C479.786 426.205 486.783 423.307 491.942 418.148C497.101 412.988 500 405.991 500 398.695V201.46C500.006 197.285 499.061 193.163 497.238 189.407C495.415 185.651 492.761 182.36 489.477 179.781Z" fill="#FEFEFE"/>
<path d="M255.722 268.874H294.237L282.82 257.223C273.659 263.413 264.237 267.512 255.722 268.874Z" fill="#FEFEFE"/>
<path d="M216.41 257.223L204.993 268.874H243.508C235.034 267.512 225.612 263.413 216.41 257.223Z" fill="#FEFEFE"/>
<path d="M249.642 488.117C261.212 488.117 270.591 478.738 270.591 467.168C270.591 455.598 261.212 446.219 249.642 446.219C238.072 446.219 228.693 455.598 228.693 467.168C228.693 478.738 238.072 488.117 249.642 488.117Z" fill="#FEFEFE"/>
<path d="M192.93 478.268C201.78 478.268 208.955 471.094 208.955 462.244C208.955 453.393 201.78 446.219 192.93 446.219C184.08 446.219 176.905 453.393 176.905 462.244C176.905 471.094 184.08 478.268 192.93 478.268Z" fill="#FEFEFE"/>
<path d="M308.212 478.268C317.062 478.268 324.237 471.094 324.237 462.244C324.237 453.393 317.062 446.219 308.212 446.219C299.362 446.219 292.187 453.393 292.187 462.244C292.187 471.094 299.362 478.268 308.212 478.268Z" fill="#FEFEFE"/>
<path d="M372.407 301.941C374.301 301.936 376.176 302.322 377.914 303.075C379.651 303.828 381.215 304.933 382.506 306.318C383.798 307.704 384.789 309.341 385.418 311.128C386.047 312.914 386.301 314.811 386.162 316.7L380.165 398.695H119.904L113.906 316.7C113.768 314.811 114.022 312.914 114.651 311.128C115.28 309.341 116.271 307.704 117.562 306.318C118.854 304.933 120.417 303.828 122.155 303.075C123.893 302.322 125.768 301.936 127.662 301.941H372.503M372.503 274.431H127.634C121.961 274.431 116.349 275.6 111.149 277.867C105.948 280.133 101.271 283.447 97.4087 287.602C93.5466 291.757 90.5826 296.664 88.702 302.016C86.8214 307.368 86.0645 313.051 86.4787 318.709L92.4622 400.703C92.9695 407.634 96.081 414.116 101.172 418.847C106.262 423.577 112.954 426.206 119.904 426.205H380.138C387.099 426.224 393.808 423.603 398.913 418.87C404.018 414.138 407.14 407.646 407.648 400.703L413.631 318.709C414.045 313.051 413.289 307.368 411.408 302.016C409.527 296.664 406.563 291.757 402.701 287.602C398.839 283.447 394.162 280.133 388.961 277.867C383.761 275.6 378.149 274.431 372.476 274.431H372.503Z" fill="#FEFEFE"/>
<path d="M251.389 315.16C246.515 315.163 241.842 317.1 238.394 320.545C234.946 323.991 233.006 328.663 232.999 333.537V340.923C230.574 341.833 228.485 343.461 227.01 345.589C225.536 347.718 224.746 350.246 224.746 352.835V370.717C224.746 374.091 226.086 377.328 228.472 379.714C230.858 382.1 234.095 383.44 237.469 383.44H265.351C268.725 383.44 271.961 382.1 274.348 379.714C276.734 377.328 278.074 374.091 278.074 370.717V352.835C278.074 350.246 277.284 347.718 275.809 345.589C274.335 343.461 272.246 341.833 269.821 340.923V333.537C269.814 328.665 267.875 323.995 264.431 320.55C260.986 317.105 256.316 315.167 251.444 315.16H251.389ZM241.21 340.112V333.537C241.307 330.904 242.421 328.411 244.318 326.582C246.215 324.754 248.748 323.732 251.382 323.732C254.017 323.732 256.549 324.754 258.446 326.582C260.343 328.411 261.457 330.904 261.554 333.537V340.112H241.21ZM243.26 372.299L245.777 361.914C244.6 360.793 243.786 359.346 243.44 357.758C243.094 356.171 243.231 354.516 243.834 353.007C244.437 351.499 245.479 350.205 246.824 349.294C248.17 348.383 249.758 347.896 251.382 347.896C253.007 347.896 254.595 348.383 255.94 349.294C257.286 350.205 258.327 351.499 258.931 353.007C259.534 354.516 259.671 356.171 259.325 357.758C258.979 359.346 258.164 360.793 256.988 361.914L259.505 372.299H243.26Z" fill="#FEFEFE"/>
<path d="M301.375 165.806C300.261 186.246 283.37 212.835 276.204 220.002C264.842 231.57 253.287 236.384 249.642 236.384C245.997 236.384 234.429 231.57 223.067 220.002C217.595 214.546 213.039 208.243 209.574 201.336C208.121 198.06 206.885 194.691 205.873 191.253C202.985 182.684 198.996 166.838 198.019 161.762L197.813 161.446L176.933 180.084C177.002 180.779 177.002 181.48 176.933 182.175C177.607 225.476 222.806 263.894 249.684 263.894C276.561 263.894 321.747 225.476 322.421 182.175C322.421 181.845 322.421 181.391 322.421 180.799L301.375 165.806Z" fill="#FEFEFE"/>
<path d="M329.395 141.405L309.587 128.145C306.919 126.4 304.756 123.986 303.315 121.143C299.827 114.119 294.922 107.892 288.909 102.857C282.896 97.8215 275.905 94.0861 268.377 91.8861L251.417 86.9342C251.021 86.8217 250.6 86.8336 250.211 86.9683C249.822 87.1029 249.484 87.3538 249.242 87.687C249 88.0202 248.867 88.4196 248.86 88.8311C248.853 89.2427 248.972 89.6465 249.202 89.9879C249.48 90.3879 249.635 90.8604 249.648 91.3472C249.662 91.8341 249.533 92.3143 249.277 92.7289C249.022 93.1435 248.651 93.4747 248.21 93.6817C247.769 93.8887 247.277 93.9626 246.795 93.8943L215.997 89.5889C215.568 89.5301 215.131 89.6 214.742 89.7897C214.353 89.9794 214.028 90.2805 213.81 90.6547C213.592 91.0289 213.49 91.4594 213.517 91.8917C213.544 92.324 213.699 92.7385 213.961 93.0828L214.608 93.9081C214.824 94.1869 214.961 94.5186 215.005 94.8686C215.049 95.2185 214.998 95.5738 214.857 95.8973C214.716 96.2207 214.491 96.5004 214.206 96.707C213.92 96.9136 213.584 97.0396 213.232 97.0718L195.557 99.0663C195.066 99.1238 194.609 99.3463 194.26 99.6972C193.911 100.048 193.692 100.507 193.638 100.998C193.583 101.49 193.697 101.986 193.961 102.404C194.225 102.823 194.622 103.139 195.089 103.303L199.01 104.678C199.242 104.762 199.446 104.91 199.596 105.106C199.747 105.301 199.839 105.536 199.86 105.782C199.882 106.028 199.833 106.275 199.719 106.493C199.605 106.712 199.43 106.894 199.216 107.017C197.763 107.908 196.174 108.554 194.512 108.929C190.798 109.903 187.43 111.894 184.787 114.678C183.053 116.395 181.592 118.366 180.454 120.524C180.255 120.969 180.179 121.459 180.231 121.943C180.284 122.427 180.464 122.889 180.754 123.281C181.044 123.672 181.432 123.98 181.88 124.173C182.327 124.365 182.818 124.435 183.301 124.376L183.769 124.293C184.003 124.252 184.245 124.283 184.461 124.382C184.677 124.482 184.858 124.645 184.979 124.85C185.1 125.054 185.155 125.291 185.138 125.529C185.121 125.766 185.032 125.992 184.883 126.178C181.747 130.043 175.86 137.416 174.732 139.63C174.273 140.547 173.888 141.318 173.576 141.941C172.9 143.325 172.548 144.844 172.545 146.384L172.971 147.828C174.501 154.8 175.663 161.848 176.451 168.942L202.393 137.636L209.161 152.423L220.371 144.568C232.33 137.275 246.306 133.993 260.261 135.201C275.158 136.577 283.205 138.64 293.673 145.696C297.325 148.175 300.778 150.935 304.003 153.949L322.435 170.923C322.325 169.355 323.81 162.23 325.433 162.395C325.725 162.544 326.057 162.599 326.382 162.551C326.706 162.504 327.008 162.357 327.245 162.13C327.483 161.903 327.644 161.608 327.706 161.286C327.768 160.964 327.729 160.63 327.593 160.332L324.017 152.326C323.745 151.714 323.598 151.054 323.585 150.384C323.571 149.714 323.692 149.048 323.939 148.426C324.186 147.803 324.555 147.236 325.024 146.758C325.494 146.28 326.053 145.9 326.671 145.641L329.092 144.637C329.389 144.498 329.644 144.283 329.832 144.015C330.021 143.747 330.136 143.434 330.167 143.107C330.197 142.781 330.142 142.452 330.007 142.153C329.871 141.855 329.66 141.597 329.395 141.405Z" fill="#FEFEFE"/>
</svg>
